<?xml version="1.0" standalone="no"?><!DOCTYPE svg PUBLIC "-//W3C//DTD SVG 1.1//EN" "http://www.w3.org/Graphics/SVG/1.1/DTD/svg11.dtd"><svg t="1555861684191" class="icon" style="" viewBox="0 0 1024 1024" version="1.1" xmlns="http://www.w3.org/2000/svg" p-id="3743" xmlns:xlink="http://www.w3.org/1999/xlink" width="200" height="200"><defs><style type="text/css"></style></defs><path d="M728.384 320a64 64 0 1 1-128.0128-0.0128A64 64 0 0 1 728.384 320z m-217.6 704C282.2912 1024 88.832 874.2912 22.9376 667.6352l35.4048-25.8688v-1.1136L367.168 405.4656a44.7744 44.7744 0 0 1 62.6432 8.3584l118.8864 155.0592-0.8448-0.1152 70.7712 92.3264a23.1936 23.1936 0 0 0 32.448 4.3136l189.76-144.4992-0.0768-0.2432c0.6272-0.4736 1.3184-0.7552 1.9584-1.1904l3.264-2.496c0.0384 0.128 0.1536 0.2432 0.192 0.3712 19.0976-10.6624 43.5712-6.1568 57.2416 11.6736l58.6624 76.5056A463.36 463.36 0 0 0 971.584 512c0-254.4896-206.3104-460.8-460.8-460.8C273.6 51.2 78.3616 230.4128 52.8768 460.8H1.344C27.0336 202.0736 245.2992 0 510.784 0c282.7776 0 512 229.2352 512 512s-229.2224 512-512 512z m372.928-464.1024c-6.9632-9.1008-19.2768-11.1488-29.1072-5.9392L661.888 700.7232a44.7872 44.7872 0 0 1-62.6432-8.3456l-138.0736-180.096 0.8448 0.1152-51.8912-67.6992a23.2192 23.2192 0 0 0-32.4608-4.3264L77.6192 668.8768C141.8112 846.0928 311.4112 972.8 510.784 972.8c207.1936 0 382.4128-136.7552 440.4096-324.9024l-67.4816-88z" p-id="3744"></path></svg>