<?xml version="1.0" standalone="no"?><!DOCTYPE svg PUBLIC "-//W3C//DTD SVG 1.1//EN" "http://www.w3.org/Graphics/SVG/1.1/DTD/svg11.dtd"><svg t="1555863248592" class="icon" style="" viewBox="0 0 1024 1024" version="1.1" xmlns="http://www.w3.org/2000/svg" p-id="12975" xmlns:xlink="http://www.w3.org/1999/xlink" width="200" height="200"><defs><style type="text/css"></style></defs><path d="M510.85312 885.6064a27.22816 27.22816 0 0 1-27.19232-27.18208V215.27552a26.94656 26.94656 0 0 1 2.26304-10.99776l5.20192-11.89888H146.7904a27.22304 27.22304 0 0 1-27.19232-27.1872 27.21792 27.21792 0 0 1 27.19232-27.1872h719.62624l8.48896 0.04096a27.2384 27.2384 0 0 1 27.20768 27.2128 27.2384 27.2384 0 0 1-27.20768 27.20256h-344.32l5.18144 11.89376c1.52064 3.47136 2.2784 7.14752 2.26816 10.93632v643.13856a27.2384 27.2384 0 0 1-27.18208 27.17696z" fill="#2c2c2c" p-id="12976"></path></svg>