<?xml version="1.0" standalone="no"?><!DOCTYPE svg PUBLIC "-//W3C//DTD SVG 1.1//EN" "http://www.w3.org/Graphics/SVG/1.1/DTD/svg11.dtd"><svg t="1555862709987" class="icon" style="" viewBox="0 0 1024 1024" version="1.1" xmlns="http://www.w3.org/2000/svg" p-id="7912" xmlns:xlink="http://www.w3.org/1999/xlink" width="200" height="200"><defs><style type="text/css"></style></defs><path d="M973.31712 86.272H49.08544c-15.01184 0.00512-27.18208 6.52288-27.18208 14.57152v131.13344c0 8.04352 12.17024 14.57152 27.18208 14.57152 15.01696 0 27.1872-6.52288 27.1872-14.57152v-101.9904c0-8.04352 12.17024-14.57152 27.18208-14.57152h815.49312c15.01184 0 27.18208 6.52288 27.18208 14.57152v101.9904c0 8.04352 12.17024 14.57152 27.1872 14.57152 15.01184 0 27.1872-6.52288 27.1872-14.57152V100.84352c-0.00512-8.04864-12.17024-14.57152-27.1872-14.57152zM973.31712 796.4672c-15.02208 0-27.19232 6.9376-27.19232 15.49824V920.4736c0 8.56064-12.16512 15.49824-27.18208 15.49824H103.45472c-15.01184 0-27.18208-6.93248-27.18208-15.49824v-108.50816c0-8.56064-12.17024-15.49824-27.1872-15.49824s-27.18208 6.9376-27.18208 15.49824V951.4752c0 8.56064 12.17024 15.50336 27.18208 15.50336H973.312c15.00672 0 27.18208-6.9376 27.18208-15.50336v-139.50976c0-8.56064-12.17024-15.49824-27.17696-15.49824z" fill="" p-id="7913"></path><path d="M137.76896 830.53056c0 11.392 9.44128 20.59776 21.12 20.59776 11.66848 0 21.11488-9.21088 21.11488-20.59776 0-140.69248 110.16704-255.11936 245.60128-255.11936 10.05056 0 18.40128-6.82496 20.54656-16.01024 22.84544 95.6416 107.22304 166.8352 207.58528 166.8352 41.97376 0 81.13152-12.4928 114.18112-33.98144 0.58368 1.10592 1.26464 2.16064 2.14016 3.1232l86.2976 95.83104a14.91456 14.91456 0 0 0 21.41696 0.89088l8.91904-8.4224a15.77472 15.77472 0 0 0 0.86528-21.92384l-86.2976-95.83104-0.2048-0.18944c40.85248-39.87456 66.4064-96.07168 66.4064-158.2848 0-120.63744-95.87712-218.78272-213.71904-218.78272-117.85216 0-213.72416 98.14528-213.72416 218.78272 0 12.03712 0.99328 23.8336 2.83136 35.34336a21.21728 21.21728 0 0 0-17.23904-8.7552c-76.60032 0-138.91072-64.96768-138.91072-144.8448 0-79.86176 72.91392-105.95328 138.91072-144.8448 48-28.28288 201.03168 52.56192 196.48 42.12224-43.51488-99.84512-184.80128-83.32288-196.48-83.32288-99.88096 0-181.1456 83.46624-181.1456 186.05056 0 68.41856 36.24448 128.18432 89.96352 160.50688-114.11456 39.36768-196.6592 150.25664-196.6592 280.82688zM653.74208 316.5952c102.79936 0 186.4448 85.62176 186.4448 190.85312 0 105.23648-83.64544 190.85824-186.4448 190.85824S467.3024 612.6848 467.3024 507.44832c0-105.23136 83.6352-190.85312 186.43968-190.85312z" fill="" p-id="7914"></path></svg>